<svg xmlns="http://www.w3.org/2000/svg" viewBox="0 0 96 96"><defs><style>.cls-1{fill:#fff;fill-opacity:0;opacity:0;}.cls-2{fill:#ffd400;}.cls-3{fill:#ffc20e;}.cls-4{fill:#00416b;}</style></defs><g id="icones"><rect class="cls-1" width="96" height="96"/><path class="cls-2" d="M34,70,13.44,77.91A4,4,0,0,1,8,74.18V38.56a4,4,0,0,1,2.32-3.63L34,24Z"/><polygon class="cls-3" points="34 70 61 80 61 36 34 24 34 70"/><path class="cls-2" d="M85.39,71,61,80V36l21.38-9.5A4,4,0,0,1,88,30.16V67.22A4,4,0,0,1,85.39,71Z"/><path class="cls-4" d="M61,16c-7.58,0-14,4.89-14,14,0,5.5,8.63,19,12.34,24.56a2,2,0,0,0,3.32,0C66.37,49,75,35.5,75,30,75,20.89,68.58,16,61,16Zm0,19a6,6,0,1,1,6-6A6,6,0,0,1,61,35Z"/></g></svg>